/* XPM */
static char * sayonara_xpm[] = {
"32 32 320 2",
"  	c None",
". 	c #0B0B0B",
"+ 	c #0C0C0C",
"@ 	c #0D0D0D",
"# 	c #0F0F0F",
"$ 	c #0E0E0E",
"% 	c #0A0A0A",
"& 	c #090909",
"* 	c #141414",
"= 	c #131313",
"- 	c #181818",
"; 	c #1A1A1A",
"> 	c #1F1F1F",
", 	c #222222",
"' 	c #262626",
") 	c #292929",
"! 	c #2A2A2A",
"~ 	c #272727",
"{ 	c #232323",
"] 	c #1C1C1C",
"^ 	c #151515",
"/ 	c #121212",
"( 	c #080808",
"_ 	c #1B1B1B",
": 	c #242424",
"< 	c #161616",
"[ 	c #191919",
"} 	c #212121",
"| 	c #202020",
"1 	c #1E1E1E",
"2 	c #171717",
"3 	c #101010",
"4 	c #111111",
"5 	c #070707",
"6 	c #1D1D1D",
"7 	c #252525",
"8 	c #2E2E2E",
"9 	c #2F2F2F",
"0 	c #2C2C2C",
"a 	c #313131",
"b 	c #4E4E4E",
"c 	c #585858",
"d 	c #5B5B5B",
"e 	c #575757",
"f 	c #525252",
"g 	c #4F4F4F",
"h 	c #4C4C4C",
"i 	c #4B4B4B",
"j 	c #4A4A4A",
"k 	c #494949",
"l 	c #474747",
"m 	c #3E3E3E",
"n 	c #373737",
"o 	c #E7E7E7",
"p 	c #F1F1F1",
"q 	c #CACACA",
"r 	c #282828",
"s 	c #D7D7D7",
"t 	c #FCFCFC",
"u 	c #FFFFFF",
"v 	c #FBFBFB",
"w 	c #FAFAFA",
"x 	c #FEFEFE",
"y 	c #F5F5F5",
"z 	c #F6F6F6",
"A 	c #F9F9F9",
"B 	c #F8F8F8",
"C 	c #F4F4F4",
"D 	c #5D5D5D",
"E 	c #020202",
"F 	c #C9C9C9",
"G 	c #828282",
"H 	c #767676",
"I 	c #FDFDFD",
"J 	c #F3F3F3",
"K 	c #EEEEEE",
"L 	c #F0F0F0",
"M 	c #EFEFEF",
"N 	c #EAEAEA",
"O 	c #E8E8E8",
"P 	c #F2F2F2",
"Q 	c #E9E9E9",
"R 	c #DCDCDC",
"S 	c #9D9D9D",
"T 	c #2B2B2B",
"U 	c #F7F7F7",
"V 	c #EBEBEB",
"W 	c #939393",
"X 	c #323232",
"Y 	c #3A3A3A",
"Z 	c #383838",
"` 	c #8C8C8C",
" .	c #818181",
"..	c #ABABAB",
"+.	c #343434",
"@.	c #3F3F3F",
"#.	c #7E7E7E",
"$.	c #8A8A8A",
"%.	c #878787",
"&.	c #7D7D7D",
"*.	c #7A7A7A",
"=.	c #797979",
"-.	c #787878",
";.	c #777777",
">.	c #727272",
",.	c #303030",
"'.	c #393939",
").	c #444444",
"!.	c #505050",
"~.	c #5C5C5C",
"{.	c #656565",
"].	c #6E6E6E",
"^.	c #6A6A6A",
"/.	c #414141",
"(.	c #363636",
"_.	c #484848",
":.	c #545454",
"<.	c #9B9B9B",
"[.	c #A7A7A7",
"}.	c #AAAAAA",
"|.	c #A8A8A8",
"1.	c #A5A5A5",
"2.	c #9F9F9F",
"3.	c #9A9A9A",
"4.	c #989898",
"5.	c #949494",
"6.	c #929292",
"7.	c #898989",
"8.	c #626262",
"9.	c #707070",
"0.	c #DEDEDE",
"a.	c #454545",
"b.	c #8E8E8E",
"c.	c #EDEDED",
"d.	c #ECECEC",
"e.	c #999999",
"f.	c #353535",
"g.	c #6B6B6B",
"h.	c #CECECE",
"i.	c #535353",
"j.	c #757575",
"k.	c #2D2D2D",
"l.	c #404040",
"m.	c #4D4D4D",
"n.	c #434343",
"o.	c #636363",
"p.	c #676767",
"q.	c #464646",
"r.	c #171616",
"s.	c #0C1115",
"t.	c #050E14",
"u.	c #212324",
"v.	c #3C3C3C",
"w.	c #535455",
"x.	c #434C55",
"y.	c #48515C",
"z.	c #4C545F",
"A.	c #4F5862",
"B.	c #4B535D",
"C.	c #454D56",
"D.	c #3F4750",
"E.	c #363F48",
"F.	c #2B343C",
"G.	c #212A33",
"H.	c #19232B",
"I.	c #131C25",
"J.	c #0D171F",
"K.	c #10171C",
"L.	c #181717",
"M.	c #131414",
"N.	c #121111",
"O.	c #121314",
"P.	c #863B07",
"Q.	c #BF5B0E",
"R.	c #592F0E",
"S.	c #222527",
"T.	c #393D42",
"U.	c #65401B",
"V.	c #CF740C",
"W.	c #E07E03",
"X.	c #DD7D06",
"Y.	c #DB7D0A",
"Z.	c #DB7F10",
"`.	c #D97F15",
" +	c #D9811D",
".+	c #D77C18",
"++	c #D5720F",
"@+	c #D56E0A",
"#+	c #D46705",
"$+	c #D56403",
"%+	c #D55D02",
"&+	c #A24908",
"*+	c #1B1713",
"=+	c #070D11",
"-+	c #923D05",
";+	c #FF8927",
">+	c #FF8C2D",
",+	c #FF881E",
"'+	c #4C2C13",
")+	c #2B2C2C",
"!+	c #303335",
"~+	c #453221",
"{+	c #FF8F0D",
"]+	c #FF8B02",
"^+	c #FE8C02",
"/+	c #FB8E07",
"(+	c #FA9211",
"_+	c #FB981F",
":+	c #FEA130",
"<+	c #FFA941",
"[+	c #FFA138",
"}+	c #FB9323",
"|+	c #F88314",
"1+	c #F87908",
"2+	c #FA7002",
"3+	c #FF6B01",
"4+	c #FF6E04",
"5+	c #BF4F06",
"6+	c #040C12",
"7+	c #070D0F",
"8+	c #DA5C0F",
"9+	c #FF8429",
"0+	c #FD8F38",
"a+	c #FF8C2C",
"b+	c #9A4C0F",
"c+	c #1C2328",
"d+	c #20272D",
"e+	c #804714",
"f+	c #FF880B",
"g+	c #FE8303",
"h+	c #F98302",
"i+	c #F78609",
"j+	c #F68B14",
"k+	c #F89221",
"l+	c #FD9D33",
"m+	c #FDAA4F",
"n+	c #FDA343",
"o+	c #FA8E25",
"p+	c #F58116",
"q+	c #F3740A",
"r+	c #F46C04",
"s+	c #FA6600",
"t+	c #FF6401",
"u+	c #EF5F07",
"v+	c #0E0F0F",
"w+	c #020A0F",
"x+	c #BD4D08",
"y+	c #FF8427",
"z+	c #FF872D",
"A+	c #FF8B29",
"B+	c #783A0B",
"C+	c #1D2124",
"D+	c #212427",
"E+	c #4C2F17",
"F+	c #FF850B",
"G+	c #FF8002",
"H+	c #FD7E01",
"I+	c #F88307",
"J+	c #F78610",
"K+	c #F88D1C",
"L+	c #FE972C",
"M+	c #FFA13E",
"N+	c #FF9C36",
"O+	c #FB8A20",
"P+	c #F57B12",
"Q+	c #F56F08",
"R+	c #F76702",
"S+	c #FF6500",
"T+	c #FF6303",
"U+	c #C24C05",
"V+	c #020B10",
"W+	c #0C0C0D",
"X+	c #2C170A",
"Y+	c #DD5A0B",
"Z+	c #F7751A",
"`+	c #BB4F06",
" @	c #1B1917",
".@	c #1E1E1D",
"+@	c #191F24",
"@@	c #82420E",
"#@	c #E06B04",
"$@	c #EC7100",
"%@	c #E66D01",
"&@	c #E36F05",
"*@	c #E1710B",
"=@	c #E27511",
"-@	c #E17618",
";@	c #DF7114",
">@	c #DE6B0D",
",@	c #DB6307",
"'@	c #DB5E03",
")@	c #DE5901",
"!@	c #DF5600",
"~@	c #B44805",
"{@	c #1D130D",
"]@	c #0C0D0E",
"^@	c #12100F",
"/@	c #26170D",
"(@	c #0F1314",
"_@	c #191E21",
":@	c #1E1F21",
"<@	c #212021",
"[@	c #1F2020",
"}@	c #1C1D1D",
"|@	c #18191A",
"1@	c #161819",
"2@	c #131516",
"3@	c #101314",
"4@	c #0E1113",
"5@	c #060D11",
"6@	c #0D0E0E",
"7@	c #0F0F0E",
"8@	c #121110",
"9@	c #1E1D1D",
"0@	c #212020",
"a@	c #222121",
"b@	c #232222",
"c@	c #1F1E1E",
"d@	c #1D1C1C",
"e@	c #191918",
"            . . . . + @ @ @ # $ $ $ $ $ @ @ + % + .             ",
"        % & & * = * - ; > , ' ) ! ~ { > ] - ^ / ^ . ( &         ",
"      & % _ : - * * < [ _ ] > } , | 1 ] [ 2 ^ = 2 , > # (       ",
"    & + | < @ $ 3 / = * ^ 2 - [ ; - - ^ * * / 4 # @ 4 ] * 5     ",
"  % % | / + # 3 = * < 2 [ ; 6 > > 1 _ ; - 2 ^ = 4 3 $ $ ; 3 &   ",
"  & - 2 + # 4 = ^ 2 [ _ 1 | , : 7 { , 1 ] ; - < = / 3 $ # 1 5   ",
"  ( } @ # = ^ < - _ 6 | : ) ! 8 9 0 ) ' : | 6 ; [ < * 3 @ * = . ",
"% ^ * $ @ ; a < ] > , ~ : b c d c e f g h i j k l m ' + # 4 2 % ",
"% < * $ n o p q > ' r | s t u t v w x u u w y z A B C D . 3 - % ",
"% / / E F w t v G } ' H x I J K K L y t w M N O O P v Q ( / 2 % ",
"% * = 5 R I I t S } T G u t C p L P U I v P V Q O P t C $ / [ % ",
". 2 < ( W u u u b X Y Z P u u t v t u u u t U z A x u ` % = 6 . ",
". ; - = 4  ...c ~ +.@.k i #.$.$.$.%.G &.*.=.-.=.;.>.g 3 * ^ | % ",
". ] - = - 4 @ 7 ,.'.).!.~.{.].;.*.>.^.D g /.(.! } ; - [ ^ ^ { . ",
". 1 ; * # h -.+.,.m _.:.f <.[.}.|.1.2.3.4.5.W W 6.7.8.3 2 < ~ . ",
". } _ # 9.u A J m ).b l A t t A A A t x x U P p J A u 4.+ 2 ! % ",
". , ] & 0.t I x 3.Z a.b.u t U y z z A I t y K c.d.P I p * - ! . ",
". > _ ( 0.I t x e.f.).#.u t U y z y A I v C K d.d.y t o + 2 r % ",
". 6 - # g.u w C Y m l m h.u u u u u u u u I w v I u C i./ < 7 . ",
". ; - * + l j.k.0 n l.m.n.e o.p.{.8.~.c g j q.l.Y f.[ = ^ ^ } . ",
". - 2 / r.s.t.u.T X v.q.w.x.y.z.A.B.C.D.E.F.G.H.I.J.K.L.M.= 1 % ",
". ^ ^ N.O.P.Q.R.S.9 n T.U.V.W.X.Y.Z.`. +.+++@+#+$+%+&+*+= / ; . ",
"% = = =+-+;+>+,+'+)+!+~+{+]+^+/+(+_+:+<+[+}+|+1+2+3+4+5+6+/ 2 % ",
"% ^ = 7+8+9+0+a+b+c+d+e+f+g+h+i+j+k+l+m+n+o+p+q+r+s+t+u+v+3 - % ",
". - = w+x+y+z+A+B+C+D+E+F+G+H+I+J+K+L+M+N+O+P+Q+R+S+T+U+V+4 - % ",
". + 6 W+X+Y+Z+`+ @.@| +@@@#@$@%@&@*@=@-@;@>@,@'@)@!@~@{@$ 3 2 . ",
"  5 6 4 ]@^@/@(@< [ _ .@_@:@, : : { <@[@}@|@1@2@3@4@5@# @ > &   ",
"  & $ _ 6@7@8@/ * < - [ _ 9@0@a@b@} c@d@; e@2 ^ = N.# @ / 2 &   ",
"    ( ^ - $ $ # 4 = * < 2 [ [ ] ] _ [ - < * * / 3 # @ = 1 5     ",
"      5 = | / 4 / / * < 2 - ; ] 6 _ ; - 2 ^ = / / 4 | [ ( %     ",
"        & ( 2 - * < ; 1 , 7 ! k.8 ! ' { > _ 2 * 2 ; % &         ",
"            . % + . + + @ $ $ # # $ $ @ @ + + + . . .           "};
