<?xml version="1.0" encoding="UTF-8" standalone="no"?>
<!-- Created with Inkscape (http://www.inkscape.org/) -->

<svg
   xmlns:dc="http://purl.org/dc/elements/1.1/"
   xmlns:cc="http://creativecommons.org/ns#"
   xmlns:rdf="http://www.w3.org/1999/02/22-rdf-syntax-ns#"
   xmlns:svg="http://www.w3.org/2000/svg"
   xmlns="http://www.w3.org/2000/svg"
   xmlns:xlink="http://www.w3.org/1999/xlink"
   xmlns:sodipodi="http://sodipodi.sourceforge.net/DTD/sodipodi-0.dtd"
   xmlns:inkscape="http://www.inkscape.org/namespaces/inkscape"
   width="64px"
   height="64px"
   id="svg4110"
   version="1.1"
   inkscape:version="0.48.4 r9939"
   sodipodi:docname="edit.svg">
  <defs
     id="defs4112">
    <linearGradient
       inkscape:collect="always"
       xlink:href="#linearGradient5773-3-9-7-3-7"
       id="linearGradient5979"
       gradientUnits="userSpaceOnUse"
       gradientTransform="matrix(0.19482496,0,0,4.5714287,81.547459,331.15734)"
       x1="-225.5"
       y1="-74.924789"
       x2="-225.5"
       y2="-50.780373" />
    <linearGradient
       id="linearGradient5773-3-9-7-3-7">
      <stop
         style="stop-color:#1c1c1c;stop-opacity:1;"
         offset="0"
         id="stop5775-4-2-5-3-74" />
      <stop
         style="stop-color:#646464;stop-opacity:1;"
         offset="1"
         id="stop5777-54-5-4-76-89" />
    </linearGradient>
    <linearGradient
       inkscape:collect="always"
       xlink:href="#linearGradient6676-6"
       id="linearGradient5981"
       gradientUnits="userSpaceOnUse"
       gradientTransform="matrix(2.8270255,0,0,2.8199617,1422.8422,-1863.3925)"
       x1="-490.32458"
       y1="681.03802"
       x2="-490.32458"
       y2="663.02307" />
    <linearGradient
       id="linearGradient6676-6">
      <stop
         style="stop-color:#313131;stop-opacity:1;"
         offset="0"
         id="stop6678-07" />
      <stop
         id="stop6684-4"
         offset="0.85958892"
         style="stop-color:#383838;stop-opacity:1;" />
      <stop
         style="stop-color:#505050;stop-opacity:1;"
         offset="1"
         id="stop6680-18" />
    </linearGradient>
    <linearGradient
       y2="663.02307"
       x2="-490.32458"
       y1="681.03802"
       x1="-490.32458"
       gradientTransform="matrix(2.8270255,0,0,2.8199617,1422.8422,-1863.3925)"
       gradientUnits="userSpaceOnUse"
       id="linearGradient6107"
       xlink:href="#linearGradient6676-6"
       inkscape:collect="always" />
  </defs>
  <sodipodi:namedview
     id="base"
     pagecolor="#ffffff"
     bordercolor="#666666"
     borderopacity="1.0"
     inkscape:pageopacity="0.0"
     inkscape:pageshadow="2"
     inkscape:zoom="5.5"
     inkscape:cx="8.454546"
     inkscape:cy="39.051876"
     inkscape:current-layer="layer1"
     showgrid="true"
     inkscape:document-units="px"
     inkscape:grid-bbox="true"
     inkscape:window-width="2560"
     inkscape:window-height="1355"
     inkscape:window-x="1680"
     inkscape:window-y="35"
     inkscape:window-maximized="1" />
  <metadata
     id="metadata4115">
    <rdf:RDF>
      <cc:Work
         rdf:about="">
        <dc:format>image/svg+xml</dc:format>
        <dc:type
           rdf:resource="http://purl.org/dc/dcmitype/StillImage" />
        <dc:title />
      </cc:Work>
    </rdf:RDF>
  </metadata>
  <g
     id="layer1"
     inkscape:label="Layer 1"
     inkscape:groupmode="layer">
    <g
       id="g5440"
       transform="translate(-1.084744,0.27118564)">
      <rect
         inkscape:export-ydpi="90"
         inkscape:export-xdpi="90"
         ry="5.0795155"
         y="-0.27118564"
         x="1.084744"
         height="64"
         width="64"
         id="rect4633-9-3-5"
         style="fill:url(#linearGradient5979);fill-opacity:1;fill-rule:nonzero;stroke:none" />
      <rect
         inkscape:export-ydpi="90"
         inkscape:export-xdpi="90"
         rx="4.9045024"
         width="55"
         height="55"
         ry="4.8922477"
         x="5.584744"
         y="4.2288146"
         id="rect4593-9-1-8-2"
         style="fill:url(#linearGradient6107);fill-opacity:1;fill-rule:nonzero;stroke:none" />
    </g>
    <path
       sodipodi:nodetypes="cscscsccccc"
       style="fill:#f3841a;fill-opacity:1;fill-rule:nonzero;stroke:none"
       d="m 15.205425,38.529487 c 0.212727,-0.250265 5.777307,-6.98843 12.366446,-14.973106 6.598085,-7.995552 12.107934,-14.5294174 12.264475,-14.5439074 0.156347,-0.014461 1.603595,-0.2153667 2.723769,-0.1182532 1.977274,0.1714261 3.370854,-0.080317 3.229377,0.1641933 -0.0381,0.065848 -6.342936,7.6438793 -13.354393,15.8554813 L 20.89543,40.515417 17.25312,39.414529 14.8192,38.984969 15.205417,38.52946 z"
       id="path8800"
       inkscape:connector-curvature="0" />
    <path
       style="fill:#ffffff;fill-opacity:1;fill-rule:nonzero;stroke:none"
       d="m 12.329018,52.157127 0.471407,-2.721284 1.044243,0.25279 c 1.180119,0.285691 2.899372,1.392599 3.337946,2.149082 l 0.277201,0.47815 -2.597703,1.258414 c -1.428745,0.692127 -2.689238,1.268699 -2.801109,1.281273 -0.111896,0.01255 0.0087,-1.20172 0.268015,-2.698425 l 0,0 z"
       id="path8808"
       inkscape:connector-curvature="0" />
    <path
       sodipodi:nodetypes="ccssscsccscc"
       style="fill:#f1d0ad;fill-opacity:1;fill-rule:nonzero;stroke:none"
       d="m 13.827948,43.928346 c 0.485914,-2.690319 0.929068,-4.948188 0.984797,-5.017487 0.146732,-0.182491 5.061676,0.259408 6.640693,0.750327 1.851757,0.575714 4.362884,3.110015 5.265363,4.519218 0.642142,1.002698 -0.499475,1.217703 -0.118648,2.730911 l 0.232125,0.922361 -4.389464,2.072726 c -2.414209,1.140006 -4.462555,2.081492 -4.551868,2.092206 -0.08936,0.01068 -0.325959,-0.246385 -0.525827,-0.571323 -0.550945,-0.89565 -1.491453,-1.574647 -2.792771,-2.016238 -0.636161,-0.215877 -1.262682,-0.437212 -1.392263,-0.491854 -0.170532,-0.07191 0.0084,-1.450346 0.647863,-4.990847 z"
       id="path8806"
       inkscape:connector-curvature="0" />
    <path
       style="fill:#302715;fill-opacity:1;fill-rule:nonzero;stroke:none"
       d="m 24.707495,42.378773 c -0.73683,-0.76529 -2.417209,-1.957443 -3.55597,-2.522793 -0.533997,-0.265109 -0.88428,-0.530279 -0.846733,-0.640982 0.0539,-0.15882 25.44663,-29.4631405 25.679879,-29.635662 0.260894,-0.192998 3.642571,1.927874 4.635867,2.907443 0.306434,0.302202 -0.488406,1.284919 -12.38445,15.311781 -6.991543,8.243873 -12.769534,15.027905 -12.839956,15.075645 -0.07046,0.04773 -0.380311,-0.1752 -0.688629,-0.495417 l 0,0 z"
       id="path8804"
       inkscape:connector-curvature="0" />
    <path
       style="fill:#f3841a;fill-opacity:1;fill-rule:nonzero;stroke:none"
       d="M 26.643867,47.010059 C 26.49956,46.55355 25.998176,45.508165 25.529684,44.686982 L 24.67789,43.193926 26.648066,40.85577 C 36.899428,28.689349 50.463667,12.822564 50.584647,12.855963 c 0.287449,0.07935 1.456737,2.351473 1.831015,3.557922 l 0.376019,1.212122 -12.827663,15.134136 c -7.055206,8.323777 -12.87943,15.121943 -12.942704,15.107043 -0.0632,-0.0148 -0.233097,-0.400593 -0.377413,-0.8571 l 0,0 z"
       id="path8802"
       inkscape:connector-curvature="0" />
    <path
       style="fill:none;stroke:#000000;stroke-width:0.84489131px;stroke-linecap:butt;stroke-linejoin:miter;stroke-opacity:1"
       d="M 39.190317,9.5947609 14.508271,38.866804 11.630765,55.205952 27.103201,47.94806 52.337915,17.861725 C 51.377772,9.5202895 44.524386,7.4181307 39.190317,9.5947609 z"
       id="path8790"
       inkscape:connector-curvature="0"
       sodipodi:nodetypes="cccccc" />
    <path
       style="fill:none;stroke:#000000;stroke-width:0.84489131px;stroke-linecap:butt;stroke-linejoin:miter;stroke-opacity:1"
       d="M 46.269053,9.2028229 20.315066,39.480245"
       id="path8792"
       inkscape:connector-curvature="0"
       sodipodi:nodetypes="cc" />
    <path
       style="fill:none;stroke:#000000;stroke-width:0.84489131px;stroke-linecap:butt;stroke-linejoin:miter;stroke-opacity:1"
       d="M 50.663679,12.478249 25.218308,42.815755"
       id="path8794"
       inkscape:connector-curvature="0"
       sodipodi:nodetypes="cc" />
    <path
       style="fill:none;stroke:#000000;stroke-width:0.84489131px;stroke-linecap:butt;stroke-linejoin:miter;stroke-opacity:1"
       d="m 14.534919,38.715516 c 5.919638,-0.188075 11.002082,1.080989 12.265701,9.17926"
       id="path8796"
       inkscape:connector-curvature="0"
       sodipodi:nodetypes="cc" />
    <path
       style="fill:none;stroke:#000000;stroke-width:0.84489131px;stroke-linecap:butt;stroke-linejoin:miter;stroke-opacity:1"
       d="m 12.696512,49.154415 c 1.823571,0.54955 3.832976,0.572881 4.868796,3.353138"
       id="path8798"
       inkscape:connector-curvature="0"
       sodipodi:nodetypes="cc" />
  </g>
</svg>
