/* XPM */
static char * sayonara_xpm[] = {
"32 32 312 2",
"  	c None",
". 	c #0C0C0C",
"+ 	c #0B0B0B",
"@ 	c #0D0D0D",
"# 	c #0E0E0E",
"$ 	c #0F0F0F",
"% 	c #101010",
"& 	c #0A0A0A",
"* 	c #131313",
"= 	c #141414",
"- 	c #161616",
"; 	c #191919",
"> 	c #1B1B1B",
", 	c #1C1C1C",
"' 	c #1D1D1D",
") 	c #171717",
"! 	c #111111",
"~ 	c #090909",
"{ 	c #1F1F1F",
"] 	c #202020",
"^ 	c #151515",
"/ 	c #181818",
"( 	c #1E1E1E",
"_ 	c #232323",
": 	c #242424",
"< 	c #222222",
"[ 	c #292929",
"} 	c #121212",
"| 	c #1A1A1A",
"1 	c #262626",
"2 	c #212121",
"3 	c #272727",
"4 	c #2C2C2C",
"5 	c #2D2D2D",
"6 	c #2B2B2B",
"7 	c #2A2A2A",
"8 	c #323232",
"9 	c #383838",
"0 	c #393939",
"a 	c #373737",
"b 	c #353535",
"c 	c #343434",
"d 	c #313131",
"e 	c #2F2F2F",
"f 	c #282828",
"g 	c #DDDDDD",
"h 	c #E5E5E5",
"i 	c #CDCDCD",
"j 	c #252525",
"k 	c #D2D2D2",
"l 	c #ECECEC",
"m 	c #F2F2F2",
"n 	c #EFEFEF",
"o 	c #EEEEEE",
"p 	c #EDEDED",
"q 	c #F3F3F3",
"r 	c #F7F7F7",
"s 	c #F6F6F6",
"t 	c #E8E8E8",
"u 	c #E7E7E7",
"v 	c #EBEBEB",
"w 	c #E2E2E2",
"x 	c #7A7A7A",
"y 	c #B7B7B7",
"z 	c #F8F8F8",
"A 	c #FCFCFC",
"B 	c #989898",
"C 	c #2E2E2E",
"D 	c #4E4E4E",
"E 	c #F5F5F5",
"F 	c #FDFDFD",
"G 	c #F0F0F0",
"H 	c #FBFBFB",
"I 	c #E9E9E9",
"J 	c #F1F1F1",
"K 	c #D4D4D4",
"L 	c #FEFEFE",
"M 	c #F9F9F9",
"N 	c #B1B1B1",
"O 	c #5D5D5D",
"P 	c #F4F4F4",
"Q 	c #8E8E8E",
"R 	c #676767",
"S 	c #3A3A3A",
"T 	c #3E3E3E",
"U 	c #FAFAFA",
"V 	c #BEBEBE",
"W 	c #A2A2A2",
"X 	c #C2C2C2",
"Y 	c #808080",
"Z 	c #3F3F3F",
"` 	c #4A4A4A",
" .	c #3C3C3C",
"..	c #A3A3A3",
"+.	c #B3B3B3",
"@.	c #B6B6B6",
"#.	c #B4B4B4",
"$.	c #B0B0B0",
"%.	c #ABABAB",
"&.	c #A6A6A6",
"*.	c #A4A4A4",
"=.	c #9D9D9D",
"-.	c #777777",
";.	c #303030",
">.	c #444444",
",.	c #5B5B5B",
"'.	c #6A6A6A",
").	c #707070",
"!.	c #787878",
"~.	c #7B7B7B",
"{.	c #757575",
"].	c #6D6D6D",
"^.	c #626262",
"/.	c #575757",
"(.	c #363636",
"_.	c #636363",
":.	c #474747",
"<.	c #545454",
"[.	c #434343",
"}.	c #8B8B8B",
"|.	c #9E9E9E",
"1.	c #979797",
"2.	c #939393",
"3.	c #8D8D8D",
"4.	c #898989",
"5.	c #868686",
"6.	c #848484",
"7.	c #565656",
"8.	c #E3E3E3",
"9.	c #3B3B3B",
"0.	c #404040",
"a.	c #4C4C4C",
"b.	c #A7A7A7",
"c.	c #CFCFCF",
"d.	c #ACACAC",
"e.	c #616161",
"f.	c #D7D7D7",
"g.	c #B2B2B2",
"h.	c #4B4B4B",
"i.	c #5F5F5F",
"j.	c #4F4F4F",
"k.	c #3D3D3D",
"l.	c #454545",
"m.	c #4D4D4D",
"n.	c #EAEAEA",
"o.	c #959595",
"p.	c #555555",
"q.	c #8C8C8C",
"r.	c #424242",
"s.	c #535353",
"t.	c #666666",
"u.	c #696969",
"v.	c #5E5E5E",
"w.	c #585858",
"x.	c #505050",
"y.	c #484848",
"z.	c #181819",
"A.	c #181A1C",
"B.	c #5C5E60",
"C.	c #606366",
"D.	c #66696C",
"E.	c #696C6E",
"F.	c #66686B",
"G.	c #5F6164",
"H.	c #575A5C",
"I.	c #4D5052",
"J.	c #414446",
"K.	c #37393C",
"L.	c #2D3032",
"M.	c #26292B",
"N.	c #1F2224",
"O.	c #1B1D1E",
"P.	c #131414",
"Q.	c #5E2E0C",
"R.	c #89420E",
"S.	c #4D2D15",
"T.	c #262729",
"U.	c #414142",
"V.	c #533F2D",
"W.	c #995C16",
"X.	c #A9630D",
"Y.	c #A9640F",
"Z.	c #A76513",
"`.	c #A66315",
" +	c #A56319",
".+	c #A4651D",
"++	c #A2621A",
"@+	c #A15C15",
"#+	c #9F5710",
"$+	c #9F530D",
"%+	c #9F4F09",
"&+	c #9D4909",
"*+	c #7E3D0D",
"=+	c #211A14",
"-+	c #0F1111",
";+	c #6B300A",
">+	c #FB7D20",
",+	c #FF8E31",
"'+	c #F27B1A",
")+	c #422A16",
"!+	c #39332D",
"~+	c #F5830B",
"{+	c #FC8B06",
"]+	c #FC8E02",
"^+	c #FA8F08",
"/+	c #F99012",
"(+	c #F99720",
"_+	c #FCA030",
":+	c #FFA942",
"<+	c #FFA43C",
"[+	c #FB9326",
"}+	c #F68618",
"|+	c #F67A0B",
"1+	c #F77203",
"2+	c #FC6C02",
"3+	c #FB6A04",
"4+	c #C65406",
"5+	c #0F1112",
"6+	c #0B0F11",
"7+	c #CD570D",
"8+	c #FE8126",
"9+	c #FD8E36",
"0+	c #FF8A2B",
"a+	c #A54E09",
"b+	c #272828",
"c+	c #2C2D2D",
"d+	c #573618",
"e+	c #FB8E17",
"f+	c #FE8303",
"g+	c #FA8404",
"h+	c #F78509",
"i+	c #F68D13",
"j+	c #F8921F",
"k+	c #FC9D30",
"l+	c #FFAA4C",
"m+	c #FFA545",
"n+	c #FB9228",
"o+	c #F68419",
"p+	c #F4770C",
"q+	c #F46D05",
"r+	c #FA6801",
"s+	c #FE6502",
"t+	c #F86409",
"u+	c #27180E",
"v+	c #090D0F",
"w+	c #BC4E0B",
"x+	c #FE7E25",
"y+	c #FE882F",
"z+	c #FD8829",
"A+	c #9A4608",
"B+	c #232324",
"C+	c #3D2B1B",
"D+	c #F98615",
"E+	c #FE8103",
"F+	c #FC7F02",
"G+	c #F78208",
"H+	c #F68610",
"I+	c #F78C1C",
"J+	c #FA9328",
"K+	c #FEA03D",
"L+	c #FF9C39",
"M+	c #FA8A22",
"N+	c #F57D14",
"O+	c #F4710A",
"P+	c #F56803",
"Q+	c #FB6501",
"R+	c #FE5F02",
"S+	c #E95B06",
"T+	c #16120F",
"U+	c #0D0E0E",
"V+	c #3D1E0A",
"W+	c #EA630F",
"X+	c #FA7B22",
"Y+	c #DC610C",
"Z+	c #261C16",
"`+	c #252424",
" @	c #9B4E0B",
".@	c #F07505",
"+@	c #FD7800",
"@@	c #F77802",
"#@	c #F57A08",
"$@	c #F37D0F",
"%@	c #F58317",
"&@	c #F6851F",
"*@	c #F4801C",
"=@	c #F37913",
"-@	c #F0700B",
";@	c #F06804",
">@	c #F36301",
",@	c #F75E00",
"'@	c #DC5704",
")@	c #4B230A",
"!@	c #0F1010",
"~@	c #0D0E0F",
"{@	c #28180D",
"]@	c #4B240C",
"^@	c #231911",
"/@	c #1B1E21",
"(@	c #33271E",
"_@	c #3B2B1D",
":@	c #3B2B1E",
"<@	c #39291D",
"[@	c #37291C",
"}@	c #35271B",
"|@	c #34251A",
"1@	c #2F2217",
"2@	c #2D2016",
"3@	c #2B1E14",
"4@	c #281B12",
"5@	c #251A11",
"6@	c #151210",
"7@	c #0E1011",
"              . + . @ # $ $ % % % % $ $ # @ # . @ .             ",
"        + & . % $ % * = - ; > , ' , ; ) - = ! % ! % & &         ",
"      ~ & { ] = * ^ / > , ( ] _ : < ] ( > ; ) = - ) [ # &       ",
"    ~ . { / % % } } * ^ - / ; ; > | / ) - = = } ! % ! ^ / ~     ",
"  & & ] = # % ! * = - / | > ( { { { , | ; / - * } % $ % - = &   ",
"  ~ / ^ # $ } = ^ / | , ' ] < : 1 _ < { , > ; ) = * ! $ % ( &   ",
"  & 2 $ $ ! * - / | ' 2 _ 3 [ 4 5 6 3 1 _ ] , ; ) ^ * ! $ % ) + ",
". = - # % ) ( | , { < 1 7 8 9 0 9 a b c d e 5 7 f _ , } % ! | & ",
". ) = % e g h i | j [ 4 k l m n o p q r s o t u t v w x # % , & ",
"+ * } & y z A r B [ C D E F E n n G E A H m v I t J F E { % > + ",
"+ ^ * . K H L M N 4 c O E A P J G J z L F P p v I n F M 7 ! ' + ",
". / ^ $ Q s H E R d S T G M U E P q s H H P n p o E P V $ ! 2 . ",
". > - * ) W X Y [ b Z `  ...+.@.#.$.%.&.W ..W *...=.-.- ^ * : + ",
"@ ' - = ) , _ f ;.0 >.D ,.'.).!.~.{.].^./.` Z (.5 1 { | - = 3 . ",
". { / ^ ) e _.3 b T :.<.[.}.|.W W |.1.2.3.4.5.6.Y !./.) / ^ 6 . ",
"@ < ; = 7.n s 8.9.0.a.D h H F U U M U A H r m J q r m b.* - e . ",
"@ _ ; $ c.H F U d.>.D e.z F M s r r M L F s G o o q L z 6 - ;.. ",
"@ ] / % f.H F U g.0.h.i.z F M r s s M F A s J p l m A s [ ^ 5 . ",
". ( ) * -.G H G j.k.l.m.n.P z E E E r M z q o l p q I o.* = [ . ",
". > - = ) p.q.>.C 9 r.m.s.,.t.u.u.t._.v.w.<.x.a.y.r.;.| - = 1 . ",
". ; - * - z.A.j 4 c k.:.s.B.C.D.E.F.G.H.I.J.K.L.M.N.O.; ^ } _ . ",
". - = } P.Q.R.S.T.;.0 U.V.W.X.Y.Z.`. +.+++@+#+$+%+&+*+=+= ! { . ",
"+ = * -+;+>+,+'+)+4 c !+~+{+]+^+/+(+_+:+<+[+}+|+1+2+3+4+5+! > + ",
"+ ^ } 6+7+8+9+0+a+b+c+d+e+f+g+h+i+j+k+l+m+n+o+p+q+r+s+t+u+$ , + ",
"+ / * v+w+x+y+z+A+B+1 C+D+E+F+G+H+I+J+K+L+M+N+O+P+Q+R+S+T+% , & ",
". # ' U+V+W+X+Y+Z+( < `+ @.@+@@@#@$@%@&@*@=@-@;@>@,@'@)@!@% / + ",
"  ~ ' } ~@{@]@^@) | ' { /@(@_@:@:@<@[@}@|@1@2@3@4@5@6@7@# ) ! + ",
"  & } - $ $ ! * ^ ) ; | , { < _ j _ 2 { , | ) - = } ! # $ ' ~   ",
"    ~ ; = $ % % * = ^ ) ; ; > ' { , > ; / - ^ * } % $ ! ] & &   ",
"    + & ) ) * % ! } = - ) / | | > > ; / ) ^ = ! ! } ! 1 & ~     ",
"        ~ # - 2 / , _ 3 5 8 9  .Z S b ;.[ : { | ( ( ! & +       ",
"          . + + . . @ # $ $ % ! ! ! % $ # # @ . . & +           "};
